<svg width="50" height="50" viewBox="0 0 50 50" fill="none" xmlns="http://www.w3.org/2000/svg">
<rect width="50" height="50" rx="7.5" fill="white" fill-opacity="0.1"/>
<path d="M10.1147 23.4774C10.8912 18.9214 15.5784 18.1417 15.5784 18.1417C20.865 17.2688 25.4178 20.7131 25.4178 20.7131L21.1939 24.4389C20.2831 19.5808 15.9073 20.7131 15.9073 20.7131C10.5954 22.7404 13.4024 26.9865 13.4024 26.9865C15.4772 30.2647 19.2457 28.2832 19.2457 28.2832C19.8529 27.8816 25.4178 22.6471 25.4178 22.6471C29.2385 18.3315 32.0202 18.1433 32.0202 18.1433C32.0202 18.1433 33.6395 17.9551 34.5504 18.1433C41.1195 19.5049 39.9129 26.044 39.9129 26.044C38.4201 32.4581 32.0202 31.484 32.0202 31.484C27.8959 30.7217 24.0886 28.7545 24.0886 28.7545L28.7831 25.2881C29.6275 30.3564 34.7275 28.7545 34.7275 28.7545C39.0795 26.9628 37.0047 22.8116 37.0047 22.8116C34.348 18.5671 30.5289 21.3725 30.5289 21.3725C29.1626 22.8116 24.2318 27.8104 20.0047 30.8293C18.5388 31.8762 15.8299 31.5409 13.8326 30.853C13.8326 30.853 9.22754 28.6722 10.1131 23.4774H10.1147Z" fill="white" stroke="white" stroke-width="0.272087" stroke-miterlimit="10"/>
<path d="M33.0949 27.4556C31.5228 27.4556 30.2484 26.2675 30.2484 24.802C30.2484 23.3365 31.5228 22.1484 33.0949 22.1484C34.667 22.1484 35.9414 23.3365 35.9414 24.802C35.9414 26.2675 34.667 27.4556 33.0949 27.4556Z" fill="#4599B0"/>
<path d="M17.0011 27.4409C15.4291 27.4409 14.1546 26.2529 14.1546 24.7874C14.1546 23.3218 15.4291 22.1338 17.0011 22.1338C18.5732 22.1338 19.8477 23.3218 19.8477 24.7874C19.8477 26.2529 18.5732 27.4409 17.0011 27.4409Z" fill="#4599B0"/>
</svg>
