<svg width="51" height="51" viewBox="0 0 51 51" fill="none" xmlns="http://www.w3.org/2000/svg">
<rect x="0.5" y="0.5" width="50" height="50" rx="25" fill="white" fill-opacity="0.1"/>
<g clip-path="url(#clip0_388_528)">
<path d="M25.5 10.5C21.5227 10.5 17.7047 12.0813 14.8945 14.8934C12.0815 17.7065 10.5008 21.5217 10.5 25.5C10.5 29.4766 12.082 33.2946 14.8945 36.1066C17.7047 38.9187 21.5227 40.5 25.5 40.5C29.4773 40.5 33.2953 38.9187 36.1055 36.1066C38.918 33.2946 40.5 29.4766 40.5 25.5C40.5 21.5234 38.918 17.7054 36.1055 14.8934C33.2953 12.0813 29.4773 10.5 25.5 10.5Z" fill="url(#paint0_linear_388_528)"/>
<path d="M17.2915 25.342C21.665 23.437 24.5806 22.1811 26.0384 21.5742C30.2056 19.8415 31.0704 19.5406 31.6353 19.5304C31.7595 19.5284 32.036 19.5591 32.2165 19.705C32.3665 19.828 32.4087 19.9944 32.4298 20.1113C32.4485 20.228 32.4743 20.494 32.4532 20.7017C32.2282 23.0735 31.2509 28.8293 30.754 31.4859C30.5454 32.61 30.1306 32.9869 29.7298 33.0237C28.8579 33.1038 28.197 32.4481 27.3532 31.8952C26.0337 31.0296 25.2884 30.491 24.0064 29.6466C22.5251 28.6706 23.486 28.1342 24.3298 27.2576C24.5501 27.0281 28.3892 23.5371 28.4618 23.2205C28.4712 23.1809 28.4806 23.0332 28.3915 22.9554C28.3048 22.8774 28.1759 22.9041 28.0821 22.9252C27.9485 22.9552 25.8415 24.3492 21.754 27.1071C21.1564 27.5182 20.615 27.7186 20.1275 27.7081C19.5931 27.6966 18.5618 27.4052 17.7954 27.1563C16.8579 26.8509 16.1103 26.6895 16.1759 26.1708C16.2087 25.9008 16.5814 25.6245 17.2915 25.342Z" fill="white"/>
</g>
<defs>
<linearGradient id="paint0_linear_388_528" x1="1510.5" y1="10.5" x2="1510.5" y2="3010.5" gradientUnits="userSpaceOnUse">
<stop stop-color="#2AABEE"/>
<stop offset="1" stop-color="#229ED9"/>
</linearGradient>
<clipPath id="clip0_388_528">
<rect width="30" height="30" fill="white" transform="translate(10.5 10.5)"/>
</clipPath>
</defs>
</svg>
