<svg width="31" height="31" viewBox="0 0 31 31" fill="none" xmlns="http://www.w3.org/2000/svg">
<g clip-path="url(#clip0_419_432)">
<path d="M15.5 0.5C11.5227 0.5 7.70469 2.08133 4.89453 4.89336C2.0815 7.70652 0.500805 11.5217 0.5 15.5C0.5 19.4766 2.08203 23.2946 4.89453 26.1066C7.70469 28.9187 11.5227 30.5 15.5 30.5C19.4773 30.5 23.2953 28.9187 26.1055 26.1066C28.918 23.2946 30.5 19.4766 30.5 15.5C30.5 11.5234 28.918 7.70539 26.1055 4.89336C23.2953 2.08133 19.4773 0.5 15.5 0.5Z" fill="url(#paint0_linear_419_432)"/>
<path d="M7.29151 15.342C11.665 13.437 14.5806 12.1811 16.0384 11.5742C20.2056 9.8415 21.0704 9.54056 21.6353 9.53036C21.7595 9.52837 22.036 9.55907 22.2165 9.70497C22.3665 9.82802 22.4087 9.99442 22.4298 10.1113C22.4485 10.228 22.4743 10.494 22.4532 10.7017C22.2282 13.0735 21.2509 18.8293 20.754 21.4859C20.5454 22.61 20.1306 22.9869 19.7298 23.0237C18.8579 23.1038 18.197 22.4481 17.3532 21.8952C16.0337 21.0296 15.2884 20.491 14.0064 19.6466C12.5251 18.6706 13.486 18.1342 14.3298 17.2576C14.5501 17.0281 18.3892 13.5371 18.4618 13.2205C18.4712 13.1809 18.4806 13.0332 18.3915 12.9554C18.3048 12.8774 18.1759 12.9041 18.0821 12.9252C17.9485 12.9552 15.8415 14.3492 11.754 17.1071C11.1564 17.5182 10.615 17.7186 10.1275 17.7081C9.59308 17.6966 8.56183 17.4052 7.79542 17.1563C6.85792 16.8509 6.11026 16.6895 6.17589 16.1708C6.2087 15.9008 6.58136 15.6245 7.29151 15.342Z" fill="white"/>
</g>
<defs>
<linearGradient id="paint0_linear_419_432" x1="1500.5" y1="0.5" x2="1500.5" y2="3000.5" gradientUnits="userSpaceOnUse">
<stop stop-color="#2AABEE"/>
<stop offset="1" stop-color="#229ED9"/>
</linearGradient>
<clipPath id="clip0_419_432">
<rect width="30" height="30" fill="white" transform="translate(0.5 0.5)"/>
</clipPath>
</defs>
</svg>
